<svg width="145" height="123" viewBox="0 0 145 123" fill="none" xmlns="http://www.w3.org/2000/svg">
<path d="M144.082 104.585L142.002 104.971C141.978 105.021 141.95 105.071 141.918 105.122C141.98 105.448 141.786 105.773 141.462 105.869C141.203 105.945 140.908 106.022 140.58 106.101C139.655 106.523 138.194 106.958 135.908 107.393L136.333 107.655L135.293 108.013L134.651 107.619C132.702 107.948 130.254 108.276 127.181 108.599L110.826 110.178C111.468 110.772 113.434 112.003 116.863 112.743C118.631 113.124 120.967 113.158 123.444 113.028L123.362 112.245L124.456 112.13L124.543 112.961C126.948 112.794 129.424 112.502 131.594 112.246C132.567 112.131 133.479 112.023 134.295 111.937C136.397 111.716 137.969 111.747 139.044 111.975L139.54 111.478L140.633 111.6L139.965 112.27C140.674 112.606 140.945 113.105 140.807 113.717C140.563 114.801 138.166 115.443 132.687 116.151L132.985 116.41L131.925 116.703L131.465 116.304C129.768 116.51 127.813 116.725 125.578 116.96C118.359 117.719 112.938 117.057 109.398 115.786C108.673 115.526 107.905 115.11 107.158 114.62L106.19 115.138L105.112 114.552L106.22 113.958C104.826 112.907 103.616 111.702 103.059 110.927L96.7001 111.541L96.4417 112.127L95.3417 112.131L95.5529 111.651L81.3251 113.024L81.271 113.147L80.171 113.151L80.1779 113.135L67.6101 114.348C67.7204 114.366 67.816 114.383 67.8953 114.399C67.9792 114.582 68.0619 114.756 68.145 114.923L68.2963 114.973L68.1965 115.025C69.348 117.284 70.6468 118.079 76.5886 118.413C77.6895 118.475 78.9983 118.47 80.3949 118.437L80.2553 117.985L81.3446 117.832L81.5216 118.405C82.2257 118.382 82.9432 118.355 83.66 118.328L83.6616 118.328C86.4151 118.224 89.1583 118.12 91.0871 118.272L91.5916 117.754L92.6854 117.871L92.1692 118.401C93.2489 118.586 93.8584 118.92 93.7308 119.486C93.5056 120.485 90.0771 121.162 85.7393 121.562L85.8311 121.773L84.7453 121.949L84.6184 121.658C78.1674 122.167 70.2309 122.107 67.6798 121.608C62.3597 120.568 59.9134 117.155 59.7142 115.259C59.808 115.207 59.9408 115.143 60.1093 115.072L51.0836 115.943L50.0634 116.654L48.987 116.428L49.4573 116.1L29.3537 118.04L29.2786 117.326L29.2652 117.327L29.2105 116.677L29.0689 115.33L28.9867 114.673L28.9997 114.672L28.9695 114.384C31.5915 114.063 34.4044 113.721 37.3623 113.363L37.2795 112.779L38.3727 112.657L38.4541 113.232C45.6486 112.364 53.649 111.412 61.8201 110.448L60.7731 109.96L61.7892 109.539L63.3529 110.267C68.4864 109.662 73.6713 109.054 78.7512 108.46L78.559 108.246L79.6291 107.992L79.9268 108.323C82.2424 108.052 84.5336 107.785 86.7853 107.524C86.7307 107.516 86.6797 107.509 86.6327 107.503C86.5046 106.284 88.09 103.777 91.4354 102.275C92.6218 101.743 93.8151 101.276 95.0477 100.866L94.1581 100.125L95.2164 99.8249L96.0752 100.541C98.9023 99.6884 101.974 99.1147 105.659 98.7273L106.148 98.6759C107.311 98.5533 108.522 98.4257 109.714 98.3143L109.946 97.6869L111.046 97.6682L110.844 98.2134C115.029 97.8601 118.699 97.7977 118.823 98.9862C118.93 100.002 115.181 101.217 107.466 102.028C100.314 102.78 94.7253 104.778 94.81 106.592C104.215 105.503 112.5 104.553 118.381 103.887L118.136 103.404L119.219 103.215L119.496 103.761C122.872 103.379 125.332 103.106 126.59 102.974C128.746 102.748 130.601 102.586 132.196 102.481L132.79 101.918L133.996 102.026L133.604 102.398C137.394 102.206 139.473 102.374 140.623 102.71C140.804 102.715 140.971 102.723 141.124 102.732C141.437 102.752 141.685 102.991 141.727 103.291C141.917 103.487 142.003 103.698 142.049 103.908L143.533 103.632L144.082 104.585Z" fill="#3D3D3D"/>
<path d="M29.4288 118.047H20.4288C19.0954 85.5467 17.6288 24.9347 17.6288 16.4967C17.6288 0.696686 21.7288 0.696686 24.7788 0.696686C27.8288 0.696686 31.4788 1.84667 31.4788 16.4967L29.4288 118.047Z" fill="#649E3A"/>
<path d="M22.9323 1.88807C23.0656 1.55476 22.9035 1.17648 22.5702 1.04316C22.2369 0.909834 21.8586 1.07195 21.7252 1.40526L22.9323 1.88807ZM23.378 118.016C22.5615 100.602 21.4818 73.9597 21.0962 50.4485C20.9033 38.692 20.8841 27.7258 21.1575 19.0907C21.2942 14.7724 21.5038 11.0456 21.8002 8.09823C22.099 5.12678 22.4803 3.0181 22.9323 1.88807L21.7252 1.40526C21.1973 2.72523 20.8049 5.00301 20.5067 7.96815C20.2061 10.9574 19.9953 14.7173 19.8581 19.0495C19.5838 27.7154 19.6034 38.7055 19.7963 50.4698C20.1823 74.0003 21.2627 100.658 22.0795 118.077L23.378 118.016Z" fill="#8ED366"/>
<path d="M26.3215 1.90453C26.1791 1.575 26.3308 1.19242 26.6603 1.05C26.9898 0.907591 27.3724 1.05928 27.5148 1.38881L26.3215 1.90453ZM25.4295 118.015C26.2801 100.594 27.667 74.229 28.2529 50.8554C28.5458 39.168 28.6382 28.2385 28.3638 19.5547C28.2265 15.2122 27.9979 11.4408 27.6584 8.42165C27.3165 5.38154 26.8686 3.17044 26.3215 1.90453L27.5148 1.38881C28.1454 2.84789 28.6076 5.2295 28.9502 8.27638C29.2952 11.3442 29.5254 15.1541 29.6631 19.5136C29.9387 28.234 29.8456 39.192 29.5525 50.888C28.9661 74.281 27.5781 100.666 26.728 118.078L25.4295 118.015Z" fill="#8ED366"/>
<path d="M23.7049 1.65573C23.6999 1.29678 23.9869 1.00174 24.3458 0.996731C24.7048 0.991725 24.9998 1.27865 25.0048 1.6376L23.7049 1.65573ZM23.6778 118.046C23.7327 83.2069 23.8569 12.549 23.7049 1.65573L25.0048 1.6376C25.1569 12.5443 25.0327 83.2198 24.9778 118.048L23.6778 118.046Z" fill="#8ED366"/>
<path d="M28.9288 82.5467C28.9288 80.5467 29.9288 78.7133 30.4288 78.0467C37.4288 77.0467 39.8904 76.1464 42.4288 69.5467C44.7365 63.5467 43.9288 51.261 49.4288 52.0467C55.4288 52.9038 51.2015 74.5467 47.9288 79.0467C44.0344 84.4015 35.0954 86.5467 30.4288 86.5467C29.9288 86.0467 28.9288 84.5467 28.9288 82.5467Z" fill="#8BC44A"/>
<path d="M28.9288 37.5467C28.9288 35.5467 30.2621 34.0467 30.9288 33.5467C32.4288 33.0467 36.1288 31.1467 38.9288 27.5467C42.4288 23.0467 41.4288 14.5467 41.4288 9.54668C41.4288 4.54668 43.9288 2.54668 47.4288 3.04668C50.9288 3.54668 51.4288 8.03532 51.4288 19.0467C51.4288 26.5467 48.4288 32.0467 44.4288 35.5467C41.6534 37.9751 34.4288 40.7133 30.9288 41.5467C30.2621 41.0467 28.9288 39.5467 28.9288 37.5467Z" fill="#8BC44A"/>
<path d="M19.9292 53.5467C19.9292 51.9467 18.9292 50.2133 18.4292 49.5467C13.9292 49.5467 10.4292 43.5467 10.4292 36.0467C10.4292 28.0311 8.42916 24.0467 5.92916 24.0467C1.80605 24.0467 1.92917 31.5467 1.92917 37.5467C1.92917 43.5467 3.42917 48.0467 6.92917 52.5467C9.72917 56.1467 15.4292 58.0467 18.4292 58.0467C18.9292 57.2133 19.9292 55.1467 19.9292 53.5467Z" fill="#8BC44A"/>
<line x1="6.03749" y1="47.3055" x2="2.13749" y2="48.9055" stroke="#ECECEC" stroke-width="1.1"/>
<line x1="29.1578" y1="48.362" x2="32.0578" y2="49.062" stroke="#ECECEC" stroke-width="1.1"/>
<line x1="6.95241" y1="35.2108" x2="9.55241" y2="35.8108" stroke="#ECECEC" stroke-width="1.1"/>
<line x1="19.5163" y1="24.1397" x2="16.4163" y2="24.6397" stroke="#ECECEC" stroke-width="1.1"/>
<path d="M20.0035 11.0902L16.9288 9.39667" stroke="#ECECEC" stroke-width="1.1"/>
<line x1="25.0803" y1="6.02579" x2="26.1664" y2="1.61144" stroke="#ECECEC" stroke-width="1.1"/>
<line x1="24.2571" y1="15.4619" x2="26.7571" y2="16.0619" stroke="#ECECEC" stroke-width="1.1"/>
<line x1="24.3652" y1="39.5433" x2="20.1652" y2="41.5433" stroke="#ECECEC" stroke-width="1.1"/>
<line x1="27.7578" y1="64.062" x2="30.6578" y2="64.762" stroke="#ECECEC" stroke-width="1.1"/>
<line x1="20.5451" y1="81.9966" x2="17.3451" y2="84.2466" stroke="#ECECEC" stroke-width="1.1"/>
<line x1="29.1628" y1="95.9598" x2="30.8628" y2="97.2598" stroke="#ECECEC" stroke-width="1.1"/>
<line x1="21.9371" y1="108.697" x2="18.6371" y2="108.747" stroke="#ECECEC" stroke-width="1.1"/>
<line x1="23.39" y1="91.4614" x2="20.29" y2="94.1614" stroke="#ECECEC" stroke-width="1.1"/>
<path d="M25.6745 72.8285L26.9288 76.0467" stroke="#ECECEC" stroke-width="1.1"/>
<line x1="21.0899" y1="64.8725" x2="17.9899" y2="65.8225" stroke="#ECECEC" stroke-width="1.1"/>
<line x1="11.9754" y1="52.3685" x2="15.0754" y2="51.4685" stroke="#ECECEC" stroke-width="1.1"/>
<path d="M40.1788 31.5287L37.6244 30.1259" stroke="#ECECEC" stroke-width="1.1"/>
<line x1="48.9272" y1="13.2849" x2="52.2272" y2="11.9849" stroke="#ECECEC" stroke-width="1.1"/>
<line x1="44.475" y1="4.78463" x2="41.975" y2="3.48463" stroke="#ECECEC" stroke-width="1.1"/>
<path d="M43.7787 20.2467H39.3787" stroke="#ECECEC" stroke-width="1.1"/>
<path d="M38.9313 36.9733L41.1787 39.2967" stroke="#ECECEC" stroke-width="1.1"/>
<line x1="45.2744" y1="64.8948" x2="42.2744" y2="65.1448" stroke="#ECECEC" stroke-width="1.1"/>
<line x1="50.0561" y1="61.4015" x2="53.0561" y2="61.0015" stroke="#ECECEC" stroke-width="1.1"/>
<line x1="48.0292" y1="54.9856" x2="44.9797" y2="53.4371" stroke="#ECECEC" stroke-width="1.1"/>
<line x1="45.4822" y1="76.4586" x2="48.0822" y2="77.8086" stroke="#ECECEC" stroke-width="1.1"/>
<line x1="38.4662" y1="81.3798" x2="38.9662" y2="83.6798" stroke="#ECECEC" stroke-width="1.1"/>
<line x1="32.8257" y1="79.4709" x2="31.5257" y2="78.0709" stroke="#ECECEC" stroke-width="1.1"/>
<line x1="27.0215" y1="54.5317" x2="24.5215" y2="57.0817" stroke="#ECECEC" stroke-width="1.1"/>
<line x1="26.338" y1="24.5419" x2="28.838" y2="26.2419" stroke="#ECECEC" stroke-width="1.1"/>
<line x1="28.7643" y1="9.31441" x2="31.8643" y2="7.61441" stroke="#ECECEC" stroke-width="1.1"/>
<line x1="3.01661" y1="32.9351" x2="0.61661" y2="32.4351" stroke="#ECECEC" stroke-width="1.1"/>
</svg>
