<svg width="60" height="36" viewBox="0 0 60 36" fill="none" xmlns="http://www.w3.org/2000/svg">
<path d="M57.8318 22.8078L55.3291 23.9294L55.422 23.9429C56.3272 24.0787 57.2407 24.3281 57.8978 24.8445C58.1804 25.0665 58.3406 25.3864 58.3683 25.7183C58.8384 26.3147 58.9801 26.968 59.0421 27.5581C59.0854 27.9701 59.1003 28.4033 58.9733 28.8449C58.9839 29.1251 58.9003 29.4105 58.7157 29.6499C58.3581 30.114 57.8713 30.4956 57.3234 30.8157L59.2895 31.7637L57.4796 32.3787L55.7474 31.5436C54.9761 31.831 54.1017 32.0815 53.1577 32.3019C51.6465 32.6548 49.9038 32.9427 48.0275 33.1771C47.3643 33.2717 46.6619 33.3637 45.918 33.4528L44.896 35.0018L42.9845 34.9827L43.8422 33.6826C42.7017 33.7993 41.4769 33.91 40.1616 34.014L33.9206 34.218L32.6059 36L30.6948 35.9566L31.9294 34.2831L25.1264 34.5055L25.0874 34.1343L25.005 34.1333L25.0142 33.4384L24.8732 32.0967L24.8561 32.0984L24.6058 29.6259L24.6134 29.6252L24.5765 29.2736L24.3494 28.2489L24.4661 28.2231L24.4458 28.0297C25.6852 27.7714 26.8651 27.5267 27.9852 27.2957L26.023 26.6779L27.7709 25.9038L30.5318 26.773C34.3195 25.9998 37.2882 25.4142 39.424 25.0205L38.7347 24.0821L40.6132 23.7277L41.3164 24.6851C41.6689 24.6261 41.9791 24.5768 42.2466 24.5374C46.7282 23.877 50.0066 23.6767 52.4077 23.7789L52.583 23.7773L56.0053 22.2436L57.8318 22.8078Z" fill="#3D3D3D"/>
<path d="M25.1444 34.5101H7.75334C5.17689 24.9675 3.72009 18.9041 3.44649 16.4417C1.73724 1.05854 10.2654 0.0539856 16.159 0.0539856C22.0526 0.0539856 29.318 0.917889 28.0361 19.5059L25.1444 34.5101Z" fill="#649E3A"/>
<path d="M11.2462 2.38056C11.5811 2.25142 11.748 1.8752 11.6188 1.54025C11.4897 1.2053 11.1135 1.03845 10.7785 1.16759L11.2462 2.38056ZM12.2278 34.2993C10.6691 29.1725 8.66252 21.7647 7.97452 15.2949C7.63002 12.0552 7.6222 9.10119 8.13884 6.80299C8.65599 4.5025 9.66314 2.99091 11.2462 2.38056L10.7785 1.16759C8.61478 2.00183 7.43243 4.01815 6.87049 6.51786C6.30804 9.01985 6.33152 12.1383 6.68181 15.4324C7.3834 22.03 9.42044 29.5348 10.984 34.6774L12.2278 34.2993Z" fill="#8ED366"/>
<path d="M19.1161 2.10889C18.778 1.98824 18.6017 1.61634 18.7224 1.27824C18.843 0.94014 19.2149 0.763863 19.553 0.884516L19.1161 2.10889ZM20.2062 34.2495C21.8248 29.1365 23.6849 21.7629 24.0271 15.2909C24.1984 12.0517 23.9861 9.08922 23.2073 6.76287C22.4333 4.45075 21.1239 2.8254 19.1161 2.10889L19.553 0.884516C22.0477 1.77475 23.5823 3.78772 24.4401 6.3502C25.2932 8.89845 25.5005 12.0469 25.3253 15.3595C24.9747 21.9913 23.0779 29.4855 21.4456 34.6418L20.2062 34.2495Z" fill="#8ED366"/>
<path d="M14.8035 1.3703C14.7712 1.01278 15.0348 0.696738 15.3924 0.664409C15.7499 0.63208 16.0659 0.895704 16.0983 1.25323L14.8035 1.3703ZM14.7065 34.5157C14.759 29.3783 14.8552 21.8826 14.902 15.2665C14.949 8.62707 14.9451 2.93639 14.8035 1.3703L16.0983 1.25323C16.2472 2.90062 16.2486 8.68055 16.202 15.2757C16.1551 21.8942 16.0588 29.397 16.0064 34.529L14.7065 34.5157Z" fill="#8ED366"/>
<line x1="6.37237" y1="5.1423" x2="2.82703" y2="1.09047" stroke="white"/>
<line x1="21.853" y1="5.56712" x2="28.2684" y2="1.68412" stroke="white"/>
<line x1="24.2997" y1="26.4562" x2="30.7151" y2="28.6509" stroke="white"/>
<line x1="6.3491" y1="17.2882" x2="0.946672" y2="18.47" stroke="white"/>
<line x1="14.3969" y1="9.78098" x2="11.0204" y2="7.41743" stroke="white"/>
<line x1="24.96" y1="14.2959" x2="31.5443" y2="16.3218" stroke="white"/>
<line x1="8.25695" y1="27.1391" x2="3.36096" y2="31.3598" stroke="white"/>
<line x1="16.3006" y1="23.4338" x2="19.5082" y2="18.8755" stroke="white"/>
</svg>
