<svg width="116" height="93" viewBox="0 0 116 93" fill="none" xmlns="http://www.w3.org/2000/svg">
<path d="M102.265 67.6339L102.518 67.4209L101.444 67.1853L101.215 67.3778C98.665 66.9953 93.957 67.4914 89.823 67.9271L89.3124 67.9808C87.5999 68.1608 86.0149 68.3857 84.5235 68.6645L83.2079 67.581L82.1647 67.9297L83.3434 68.9005C80.0858 69.5964 77.2586 70.5793 74.4726 71.9534C73.1554 72.6031 72.1039 73.4253 71.3137 74.2739L71.2805 74.2941L71.2914 74.298C70.3159 75.3528 69.7437 76.4463 69.5665 77.2989C64.3689 77.9376 58.9638 78.607 53.649 79.2719L55.0608 78.2846L54.0041 77.979L51.9066 79.4458L52.0134 79.4767C48.3631 79.9343 44.7703 80.388 41.3329 80.8263L40.4359 80.1778L39.4029 80.5558L40.0105 80.9951C35.7783 81.5361 31.8069 82.0508 28.2855 82.5168L28.3252 82.895L27.9548 82.9453L28.058 83.7058L28.0549 83.7061L28.1894 84.9991L28.1964 84.9984L28.2579 85.8366L28.6315 85.8092L28.7419 86.859L43.6354 85.4923L43.5056 86.1756L44.6049 86.1349L44.7463 85.3904L54.4333 84.5014C54.5602 85.0258 54.7954 85.6158 55.1447 86.2281L55.1826 86.5888L55.351 86.5711C56.5966 88.5392 59.0054 90.6524 62.7613 91.5221C65.8293 92.2325 76.2935 92.3625 83.3251 91.5411L83.4887 91.6773L84.2501 91.4247C87.4954 90.9852 89.8218 90.3187 89.9996 89.3831C90.0628 89.0502 89.9322 88.7837 89.643 88.5714L90.1123 88.4872L89.6655 87.482L87.2554 87.9146L87.261 87.927C85.2378 87.7168 82.3468 87.8021 79.4448 87.8876L79.4429 87.8877L79.4409 87.8877C79.0335 87.8997 78.6259 87.9118 78.2204 87.923L79.834 87.254L78.8931 86.6842L76.0162 87.8768L76.1688 87.9692C74.6543 87.9926 73.2331 87.9828 72.0427 87.8924C65.7404 87.4139 64.415 86.4445 63.1663 83.7L71.3304 82.9508L71.7159 83.2109L72.7266 82.8227L97.8373 80.5184L99.5447 81.9775L100.591 81.6366L99.1419 80.3987L103.716 79.9789C110.584 79.2571 113.353 78.2462 114.419 77.2274C114.503 77.1973 114.583 77.1671 114.66 77.1368C114.993 77.0048 115.157 76.6272 115.025 76.2934C115.018 76.2752 115.01 76.2576 115.001 76.2404C115.054 75.9944 115.05 75.7535 115.025 75.522C114.992 75.2075 114.957 74.8698 114.808 74.5453C114.819 74.5107 114.828 74.4747 114.833 74.4375C114.886 74.0824 114.641 73.7517 114.286 73.6989C114.173 73.6821 114.051 73.6671 113.921 73.6538C113.134 73.2253 111.752 72.9268 109.297 72.9145L110.181 72.4911L109.195 72.0035L107.189 72.9641C105.993 73.0211 104.611 73.1288 103.014 73.2967C102.123 73.3903 100.446 73.5812 98.1556 73.849L98.9904 73.1332L97.9147 72.9033L96.5986 74.0317C92.0265 74.5701 85.5961 75.3422 78.3118 76.2291C78.7986 75.4642 79.9727 74.7085 81.6384 74.0363L82.2685 74.7127L83.3279 74.4166L82.6291 73.6664C84.9233 72.8722 87.9219 72.2289 91.2479 71.8793C92.2764 71.7712 93.2374 71.6545 94.131 71.5307L94.2119 72.3001L95.3059 72.1851L95.2203 71.3712C100.595 70.5395 103.197 69.4398 103.095 68.4626C103.056 68.0942 102.76 67.8246 102.265 67.6339Z" fill="#3D3D3D"/>
<path d="M28.754 86.8829H19.6566C18.3088 63.0653 16.8262 18.6458 16.8262 12.462C16.8262 0.882935 20.9706 0.882935 24.0537 0.882935C27.1367 0.882935 30.8262 1.7257 30.8262 12.462L28.754 86.8829Z" fill="#649E3A"/>
<path d="M21.9973 1.89241C22.1688 1.57701 22.0521 1.18234 21.7367 1.01089C21.4213 0.839444 21.0266 0.956135 20.8552 1.27153L21.9973 1.89241ZM22.3206 86.7873C21.5042 73.976 20.4634 54.4776 20.1164 37.2845C19.9429 28.6868 19.9431 20.6756 20.2305 14.3691C20.3742 11.215 20.5893 8.49865 20.8881 6.35369C21.1908 4.18105 21.5692 2.67991 21.9973 1.89241L20.8552 1.27153C20.3033 2.28683 19.9033 4.00075 19.6006 6.17433C19.2939 8.3756 19.0765 11.1366 18.9319 14.3099C18.6426 20.6583 18.643 28.7022 18.8167 37.3108C19.1642 54.5304 20.2063 74.0497 21.0232 86.8699L22.3206 86.7873Z" fill="#8ED366"/>
<path d="M25.4551 1.91115C25.2733 1.60161 25.3769 1.20329 25.6864 1.02149C25.996 0.839687 26.3943 0.943244 26.5761 1.25279L25.4551 1.91115ZM24.9898 86.8282C25.8403 74.0107 27.1113 54.7059 27.5815 37.6046C27.8166 29.0528 27.851 21.0647 27.5339 14.7201C27.3754 11.5471 27.1294 8.7977 26.7797 6.60041C26.4263 4.38033 25.9778 2.80114 25.4551 1.91115L26.5761 1.25279C27.231 2.36794 27.7071 4.15692 28.0635 6.39606C28.4236 8.658 28.6726 11.4589 28.8323 14.6552C29.1519 21.0494 29.1164 29.0764 28.881 37.6404C28.41 54.7708 27.1372 74.1003 26.287 86.9143L24.9898 86.8282Z" fill="#8ED366"/>
<path d="M22.9722 1.51854C22.9654 1.15962 23.2508 0.863144 23.6098 0.856342C23.9687 0.84954 24.2652 1.13499 24.272 1.49391L22.9722 1.51854ZM22.9838 86.9125C23.0387 61.2745 23.124 9.53009 22.9722 1.51854L24.272 1.49391C24.4241 9.52352 24.3387 61.2902 24.2838 86.9153L22.9838 86.9125Z" fill="#8ED366"/>
<path d="M26.8262 57.4189C26.8262 55.4189 27.8262 53.5855 28.3262 52.9189C35.3262 51.9189 37.7879 51.0186 40.3262 44.4189C42.6339 38.4189 41.8262 26.1332 47.3262 26.9189C53.3262 27.7761 49.099 49.4189 45.8262 53.9189C41.9318 59.2737 32.9929 61.4189 28.3262 61.4189C27.8262 60.9189 26.8262 59.4189 26.8262 57.4189Z" fill="#8BC44A"/>
<path d="M20.8266 41.3829C20.8266 39.7829 19.8266 38.0496 19.3266 37.3829C14.8266 37.3829 11.3266 31.3829 11.3266 23.8829C11.3266 15.8673 9.32662 11.8829 6.82662 11.8829C2.70351 11.8829 2.82663 19.3829 2.82663 25.3829C2.82663 31.3829 4.32663 35.8829 7.82663 40.3829C10.6266 43.9829 16.3266 45.8829 19.3266 45.8829C19.8266 45.0496 20.8266 42.9829 20.8266 41.3829Z" fill="#8BC44A"/>
<line x1="3.66838" y1="30.5503" x2="0.901197" y2="31.8417" stroke="#ECECEC" stroke-width="1.1"/>
<line x1="9.33905" y1="20.4625" x2="12.8441" y2="20.4625" stroke="#ECECEC" stroke-width="1.1"/>
<line x1="6.07199" y1="14.0839" x2="4.2272" y2="12.7926" stroke="#ECECEC" stroke-width="1.1"/>
<line x1="5.99306" y1="25.5005" x2="4.14827" y2="26.9763" stroke="#ECECEC" stroke-width="1.1"/>
<line x1="12.4747" y1="33.408" x2="15.0574" y2="32.4856" stroke="#ECECEC" stroke-width="1.1"/>
<line x1="13.4175" y1="41.1406" x2="11.3883" y2="43.1698" stroke="#ECECEC" stroke-width="1.1"/>
<line x1="36.2719" y1="54.81" x2="34.2426" y2="52.9652" stroke="#ECECEC" stroke-width="1.1"/>
<line x1="42.4725" y1="47.2166" x2="45.2396" y2="46.8477" stroke="#ECECEC" stroke-width="1.1"/>
<line x1="42.0788" y1="39.9363" x2="40.234" y2="36.9846" stroke="#ECECEC" stroke-width="1.1"/>
<line x1="48.0335" y1="34.1645" x2="50.4317" y2="33.0576" stroke="#ECECEC" stroke-width="1.1"/>
<line x1="45.3221" y1="29.2131" x2="44.9532" y2="26.8149" stroke="#ECECEC" stroke-width="1.1"/>
<line x1="32.2109" y1="58.646" x2="32.2109" y2="60.8598" stroke="#ECECEC" stroke-width="1.1"/>
<line x1="42.9446" y1="52.3781" x2="46.2652" y2="52.5625" stroke="#ECECEC" stroke-width="1.1"/>
<line x1="26.0404" y1="46.1761" x2="30.2834" y2="43.7779" stroke="#ECECEC" stroke-width="1.1"/>
<line x1="22.324" y1="35.1265" x2="19.7414" y2="33.4662" stroke="#ECECEC" stroke-width="1.1"/>
<line x1="25.2816" y1="26.2649" x2="28.2333" y2="24.4201" stroke="#ECECEC" stroke-width="1.1"/>
<line x1="18.2514" y1="18.883" x2="15.2997" y2="16.8537" stroke="#ECECEC" stroke-width="1.1"/>
<line x1="18.4919" y1="8.61348" x2="16.2782" y2="5.66183" stroke="#ECECEC" stroke-width="1.1"/>
<line x1="26.1386" y1="10.2161" x2="27.061" y2="5.05066" stroke="#ECECEC" stroke-width="1.1"/>
<line x1="30.1439" y1="17.9282" x2="33.8334" y2="16.2679" stroke="#ECECEC" stroke-width="1.1"/>
<line x1="18.943" y1="62.7532" x2="16.3603" y2="60.5395" stroke="#ECECEC" stroke-width="1.1"/>
<line x1="21.941" y1="55.2252" x2="18.9893" y2="53.196" stroke="#ECECEC" stroke-width="1.1"/>
<line x1="28.0492" y1="71.384" x2="30.6319" y2="71.753" stroke="#ECECEC" stroke-width="1.1"/>
<line x1="23.5397" y1="63.2869" x2="23.3552" y2="66.792" stroke="#ECECEC" stroke-width="1.1"/>
<line x1="20.8496" y1="73.5214" x2="17.7134" y2="75.1817" stroke="#ECECEC" stroke-width="1.1"/>
</svg>
