<svg width="1112" height="1561" viewBox="0 0 1112 1561" fill="none" xmlns="http://www.w3.org/2000/svg">
<path d="M343 1319.28V342.055C343 339.409 346.176 338.059 348.081 339.894L1058.79 1024.46C1060.64 1026.24 1059.54 1029.37 1056.99 1029.61L796.273 1054.1C794.198 1054.29 792.949 1056.49 793.845 1058.38L950.742 1387.86C951.442 1389.33 950.843 1391.09 949.391 1391.82L721.208 1507.63C719.718 1508.38 717.897 1507.78 717.159 1506.28L557.037 1181.12C556.227 1179.48 554.146 1178.94 552.639 1179.98L347.707 1321.74C345.717 1323.12 343 1321.7 343 1319.28Z" stroke="#EFEFEF" stroke-width="100"/>
<path fill-rule="evenodd" clip-rule="evenodd" d="M568.943 381.771C568.45 381.296 568.235 380.603 568.368 379.932C571.262 365.366 572.779 350.305 572.779 334.889C572.779 207.925 469.854 105 342.889 105C215.925 105 113 207.925 113 334.889C113 411.093 150.077 478.637 207.176 520.465C207.693 520.843 208 521.445 208 522.085V632.941C208 634.391 206.502 635.357 205.184 634.751C91.7532 582.575 13 467.929 13 334.889C13 152.697 160.697 5 342.889 5C525.082 5 672.779 152.697 672.779 334.889C672.779 377.624 664.653 418.46 649.863 455.937C649.343 457.255 647.654 457.614 646.634 456.631L568.943 381.771Z" fill="#EFEFEF"/>
</svg>
